<svg width="24" height="24" viewBox="0 0 24 24" fill="none" xmlns="http://www.w3.org/2000/svg">
<path d="M11.999 7.42383C10.7726 7.42383 9.59651 7.9066 8.72934 8.76594C7.86217 9.62528 7.375 10.7908 7.375 12.0061C7.375 13.2214 7.86217 14.3869 8.72934 15.2462C9.59651 16.1056 10.7726 16.5883 11.999 16.5883C13.2254 16.5883 14.4015 16.1056 15.2687 15.2462C16.1358 14.3869 16.623 13.2214 16.623 12.0061C16.623 10.7908 16.1358 9.62528 15.2687 8.76594C14.4015 7.9066 13.2254 7.42383 11.999 7.42383ZM11.999 14.982C11.2023 14.982 10.4382 14.6683 9.87485 14.1101C9.31149 13.5518 8.995 12.7946 8.995 12.0051C8.995 11.2156 9.31149 10.4584 9.87485 9.90012C10.4382 9.34184 11.2023 9.02821 11.999 9.02821C12.7957 9.02821 13.5598 9.34184 14.1231 9.90012C14.6865 10.4584 15.003 11.2156 15.003 12.0051C15.003 12.7946 14.6865 13.5518 14.1231 14.1101C13.5598 14.6683 12.7957 14.982 11.999 14.982Z" fill="#6E7191"/>
<path d="M16.8055 8.32306C17.4009 8.32306 17.8835 7.84478 17.8835 7.25479C17.8835 6.6648 17.4009 6.18652 16.8055 6.18652C16.2102 6.18652 15.7275 6.6648 15.7275 7.25479C15.7275 7.84478 16.2102 8.32306 16.8055 8.32306Z" fill="#6E7191"/>
<path d="M20.533 6.16877C20.3015 5.57635 19.9477 5.03836 19.4943 4.58923C19.0409 4.14009 18.4979 3.78972 17.9 3.56054C17.2003 3.30027 16.4611 3.15954 15.714 3.14433C14.751 3.10271 14.446 3.09082 12.004 3.09082C9.56195 3.09082 9.24895 3.09082 8.29395 3.14433C7.54734 3.15876 6.80871 3.29952 6.10995 3.56054C5.51189 3.78946 4.96872 4.13973 4.51529 4.5889C4.06186 5.03806 3.70818 5.5762 3.47695 6.16877C3.21426 6.86207 3.07257 7.59462 3.05795 8.33504C3.01495 9.28835 3.00195 9.5906 3.00195 12.0115C3.00195 14.4315 3.00195 14.7397 3.05795 15.688C3.07295 16.4293 3.21395 17.1606 3.47695 17.8553C3.70883 18.4477 4.06285 18.9856 4.51639 19.4347C4.96993 19.8838 5.51302 20.2342 6.11095 20.4635C6.80839 20.7343 7.54732 20.8851 8.29595 20.9095C9.25895 20.9511 9.56395 20.964 12.006 20.964C14.448 20.964 14.761 20.964 15.716 20.9095C16.4631 20.8944 17.2022 20.754 17.902 20.4942C18.4997 20.2645 19.0426 19.9139 19.4959 19.4646C19.9493 19.0153 20.3031 18.4774 20.535 17.885C20.798 17.1913 20.939 16.46 20.954 15.7188C20.997 14.7654 21.01 14.4632 21.01 12.0423C21.01 9.62132 21.01 9.31412 20.954 8.36576C20.9423 7.61487 20.7999 6.87162 20.533 6.16877ZM19.315 15.6147C19.3085 16.1858 19.2033 16.7516 19.004 17.2875C18.8538 17.6728 18.6239 18.0228 18.329 18.3148C18.0342 18.6068 17.6809 18.8344 17.292 18.983C16.7572 19.1797 16.1923 19.2839 15.622 19.2912C14.672 19.3348 14.404 19.3457 11.968 19.3457C9.52995 19.3457 9.28095 19.3457 8.31295 19.2912C7.74288 19.2843 7.17828 19.18 6.64395 18.983C6.25364 18.8353 5.89895 18.6081 5.60284 18.3161C5.30673 18.024 5.07579 17.6736 4.92495 17.2875C4.7284 16.7573 4.62326 16.1982 4.61395 15.6335C4.57095 14.6921 4.56095 14.4265 4.56095 12.0125C4.56095 9.59753 4.56095 9.35078 4.61395 8.39053C4.62042 7.81975 4.72561 7.2543 4.92495 6.71876C5.22995 5.93689 5.85495 5.32149 6.64395 5.02222C7.17854 4.82615 7.74298 4.72192 8.31295 4.71403C9.26395 4.67142 9.53095 4.65953 11.968 4.65953C14.405 4.65953 14.655 4.65953 15.622 4.71403C16.1924 4.72083 16.7573 4.82509 17.292 5.02222C17.6809 5.17114 18.0341 5.39899 18.3289 5.69116C18.6238 5.98332 18.8537 6.33335 19.004 6.71876C19.2005 7.24888 19.3056 7.808 19.315 8.37269C19.358 9.31511 19.369 9.5797 19.369 11.9947C19.369 14.4087 19.369 14.6683 19.326 15.6157H19.315V15.6147Z" fill="#6E7191"/>
</svg>
