<svg width="18" height="18" viewBox="0 0 18 18" fill="none" xmlns="http://www.w3.org/2000/svg">
<g clip-path="url(#clip0_2001_417)">
<path d="M17.4301 16.2918L16.1998 12.6H14.8498L15.5995 16.2H2.40014L3.14984 12.6H1.79984L0.568636 16.2918C0.256336 17.2314 0.809836 18 1.79984 18H16.1998C17.1898 18 17.7433 17.2314 17.4301 16.2918ZM13.4998 4.5C13.4998 3.30653 13.0257 2.16193 12.1818 1.31802C11.3379 0.474106 10.1933 0 8.99984 0C7.80636 0 6.66177 0.474106 5.81786 1.31802C4.97394 2.16193 4.49984 3.30653 4.49984 4.5C4.49984 8.7975 8.99984 13.5 8.99984 13.5C8.99984 13.5 13.4998 8.7975 13.4998 4.5ZM6.56984 4.554C6.56984 3.2121 7.65704 2.1249 8.99984 2.1249C9.64419 2.1249 10.2622 2.38087 10.7178 2.8365C11.1734 3.29213 11.4294 3.91009 11.4294 4.55445C11.4294 5.19881 11.1734 5.81677 10.7178 6.2724C10.2622 6.72803 9.64419 6.984 8.99984 6.984C8.35536 6.984 7.73728 6.72798 7.28157 6.27227C6.82585 5.81656 6.56984 5.19848 6.56984 4.554Z" fill="#4E4B66"/>
</g>
<defs>
<clipPath id="clip0_2001_417">
<rect width="18" height="18" fill="white"/>
</clipPath>
</defs>
</svg>
