<svg width="24" height="25" viewBox="0 0 24 25" fill="none" xmlns="http://www.w3.org/2000/svg">
<path d="M8.5096 20.4996H8.4296C6.81796 20.4856 5.22963 20.1166 3.7796 19.4194C3.51288 19.2953 3.29326 19.0898 3.15291 18.833C3.01255 18.5762 2.95883 18.2817 2.9996 17.9924C3.04395 17.7013 3.17999 17.4314 3.38831 17.2214C3.59663 17.0114 3.86657 16.872 4.1596 16.8231C5.05821 16.7043 5.92269 16.4041 6.6996 15.9411C5.35076 14.8961 4.31235 13.5089 3.69442 11.9265C3.07649 10.3442 2.90205 8.62562 3.1896 6.95301C3.22859 6.68808 3.34357 6.43982 3.52085 6.23779C3.69813 6.03575 3.93026 5.88845 4.1896 5.8134C4.44192 5.73487 4.71195 5.73152 4.96617 5.80375C5.22039 5.87598 5.44761 6.02061 5.6196 6.21969C6.20361 6.97856 6.9375 7.61157 7.77651 8.08011C8.61552 8.54864 9.54206 8.84288 10.4996 8.94487C10.5453 7.77736 11.0516 6.67427 11.9096 5.87285C12.338 5.46633 12.8438 5.14837 13.3974 4.93749C13.9511 4.7266 14.5415 4.62702 15.1344 4.64455C15.7273 4.66207 16.3107 4.79635 16.8507 5.03956C17.3907 5.28276 17.8764 5.63004 18.2796 6.06114C18.3846 6.15317 18.5152 6.21182 18.6542 6.22949C18.7933 6.24716 18.9345 6.22303 19.0596 6.16024C19.298 6.0488 19.5635 6.00685 19.8251 6.03928C20.0867 6.07172 20.3336 6.1772 20.5369 6.34341C20.7403 6.50963 20.8918 6.72973 20.9737 6.97804C21.0556 7.22635 21.0646 7.49262 20.9996 7.74579C20.769 8.68733 20.3319 9.56699 19.7196 10.3223C19.5846 13.1414 18.3305 15.7932 16.2305 17.6997C14.1306 19.6062 11.3553 20.6126 8.5096 20.4996ZM8.5096 18.5176H8.5896C9.75227 18.5573 10.9113 18.3678 11.9995 17.9602C13.0878 17.5526 14.0835 16.935 14.929 16.1432C15.7746 15.3513 16.4531 14.4011 16.9253 13.3474C17.3974 12.2938 17.6538 11.1578 17.6796 10.0052C17.6961 9.68933 17.8276 9.39009 18.0496 9.16288C18.2935 8.85691 18.5015 8.52445 18.6696 8.17191C18.3094 8.17259 17.953 8.09791 17.6239 7.95276C17.2948 7.80761 17.0002 7.59526 16.7596 7.32958C16.5282 7.10221 16.2534 6.92286 15.9511 6.80205C15.6489 6.68124 15.3254 6.62138 14.9996 6.62599C14.6705 6.61756 14.343 6.67362 14.0358 6.79096C13.7286 6.9083 13.4478 7.08461 13.2096 7.30976C12.8882 7.61201 12.6525 7.99261 12.5261 8.41347C12.3998 8.83434 12.3872 9.28071 12.4896 9.70791L12.7496 10.8376L11.5796 10.9169C10.3807 11.0138 9.17487 10.8513 8.04562 10.4406C6.91637 10.0299 5.89069 9.38095 5.0396 8.53857C5.0031 9.84308 5.3324 11.1321 5.9909 12.2622C6.64939 13.3924 7.61127 14.3194 8.7696 14.9402L9.7196 15.4754L9.0896 16.3672C8.4083 17.2527 7.47479 17.9154 6.4096 18.2699C7.09292 18.4396 7.79517 18.5229 8.4996 18.5176H8.5096Z" fill="#6E7191"/>
</svg>
