<svg width="24" height="25" viewBox="0 0 24 25" fill="none" xmlns="http://www.w3.org/2000/svg">
<path d="M13 22.3476H9C8.73478 22.3476 8.48043 22.2432 8.29289 22.0574C8.10536 21.8716 8 21.6195 8 21.3567V15.2127H6C5.73478 15.2127 5.48043 15.1082 5.29289 14.9224C5.10536 14.7366 5 14.4845 5 14.2217V10.6542C5 10.3914 5.10536 10.1393 5.29289 9.95347C5.48043 9.76763 5.73478 9.66322 6 9.66322H8V7.97857C8.0701 6.46868 8.74062 5.04772 9.86497 4.02637C10.9893 3.00502 12.476 2.46638 14 2.52823H17C17.2652 2.52823 17.5196 2.63264 17.7071 2.81848C17.8946 3.00432 18 3.25638 18 3.5192V7.0867C18 7.34952 17.8946 7.60158 17.7071 7.78742C17.5196 7.97326 17.2652 8.07767 17 8.07767H14V9.66322H17C17.1544 9.66206 17.307 9.69635 17.4458 9.7634C17.5846 9.83045 17.7058 9.92845 17.8 10.0497C17.8931 10.1728 17.9561 10.3156 17.9839 10.467C18.0116 10.6184 18.0035 10.7741 17.96 10.9218L16.96 14.4892C16.8995 14.7036 16.768 14.8915 16.5866 15.0228C16.4052 15.154 16.1844 15.2209 15.96 15.2127H14V21.3567C14 21.6195 13.8946 21.8716 13.7071 22.0574C13.5196 22.2432 13.2652 22.3476 13 22.3476ZM10 20.3657H12V14.2217C12 13.9589 12.1054 13.7068 12.2929 13.521C12.4804 13.3351 12.7348 13.2307 13 13.2307H15.24L15.68 11.6452H13C12.7348 11.6452 12.4804 11.5408 12.2929 11.3549C12.1054 11.1691 12 10.917 12 10.6542V7.97857C12.0257 7.47029 12.2477 6.99127 12.62 6.64076C12.9923 6.29024 13.4864 6.09509 14 6.09573H16V4.51017H14C13.0068 4.45021 12.0298 4.78074 11.281 5.43005C10.5321 6.07937 10.0719 6.9951 10 7.97857V10.6542C10 10.917 9.89464 11.1691 9.70711 11.3549C9.51957 11.5408 9.26522 11.6452 9 11.6452H7V13.2307H9C9.26522 13.2307 9.51957 13.3351 9.70711 13.521C9.89464 13.7068 10 13.9589 10 14.2217V20.3657Z" fill="#6E7191"/>
</svg>
