<svg width="81" height="15" viewBox="0 0 81 15" fill="none" xmlns="http://www.w3.org/2000/svg">
<path d="M0.714158 14V1.31H8.85016V2.804H2.58616V6.872H8.43616V8.366H2.58616V14H0.714158ZM13.9775 14.162C13.1735 14.162 12.4715 13.976 11.8715 13.604C11.2715 13.232 10.8035 12.692 10.4675 11.984C10.1435 11.276 9.98149 10.436 9.98149 9.464C9.98149 8.48 10.1435 7.64 10.4675 6.944C10.8035 6.248 11.2715 5.714 11.8715 5.342C12.4715 4.958 13.1735 4.766 13.9775 4.766C14.7695 4.766 15.4595 4.964 16.0475 5.36C16.6355 5.756 17.0255 6.296 17.2175 6.98H17.0195L17.1995 4.928H18.9635C18.9275 5.3 18.8915 5.672 18.8555 6.044C18.8315 6.404 18.8195 6.758 18.8195 7.106V14H17.0015V11.984H17.1995C17.0075 12.656 16.6115 13.19 16.0115 13.586C15.4235 13.97 14.7455 14.162 13.9775 14.162ZM14.4275 12.74C15.2075 12.74 15.8315 12.464 16.2995 11.912C16.7795 11.36 17.0195 10.544 17.0195 9.464C17.0195 8.384 16.7795 7.574 16.2995 7.034C15.8315 6.482 15.2075 6.206 14.4275 6.206C13.6355 6.206 12.9995 6.482 12.5195 7.034C12.0515 7.574 11.8175 8.384 11.8175 9.464C11.8175 10.544 12.0515 11.36 12.5195 11.912C12.9875 12.464 13.6235 12.74 14.4275 12.74ZM25.5402 14.162C24.6282 14.162 23.8302 13.976 23.1462 13.604C22.4742 13.22 21.9522 12.674 21.5802 11.966C21.2202 11.246 21.0402 10.394 21.0402 9.41C21.0402 8.438 21.2262 7.604 21.5982 6.908C21.9702 6.212 22.4922 5.684 23.1642 5.324C23.8362 4.952 24.6282 4.766 25.5402 4.766C26.1282 4.766 26.6982 4.868 27.2502 5.072C27.8022 5.264 28.2582 5.54 28.6182 5.9L28.0242 7.178C27.6882 6.854 27.3102 6.614 26.8902 6.458C26.4702 6.29 26.0622 6.206 25.6662 6.206C24.8022 6.206 24.1242 6.482 23.6322 7.034C23.1402 7.586 22.8942 8.384 22.8942 9.428C22.8942 10.484 23.1402 11.294 23.6322 11.858C24.1242 12.422 24.8022 12.704 25.6662 12.704C26.0502 12.704 26.4522 12.632 26.8722 12.488C27.2922 12.332 27.6762 12.086 28.0242 11.75L28.6182 13.028C28.2462 13.388 27.7782 13.67 27.2142 13.874C26.6622 14.066 26.1042 14.162 25.5402 14.162ZM34.6529 14.162C33.6689 14.162 32.8229 13.976 32.1149 13.604C31.4189 13.232 30.8789 12.698 30.4949 12.002C30.1229 11.294 29.9369 10.454 29.9369 9.482C29.9369 8.534 30.1169 7.706 30.4769 6.998C30.8489 6.29 31.3589 5.744 32.0069 5.36C32.6669 4.964 33.4289 4.766 34.2929 4.766C35.1449 4.766 35.8589 4.946 36.4349 5.306C37.0109 5.666 37.4489 6.176 37.7489 6.836C38.0489 7.484 38.1989 8.252 38.1989 9.14V9.716H31.3589V8.672H36.9569L36.6509 8.906C36.6509 8.006 36.4469 7.31 36.0389 6.818C35.6429 6.314 35.0669 6.062 34.3109 6.062C33.7469 6.062 33.2669 6.194 32.8709 6.458C32.4869 6.722 32.1929 7.1 31.9889 7.592C31.7849 8.072 31.6829 8.654 31.6829 9.338V9.518C31.6829 10.586 31.9409 11.39 32.4569 11.93C32.9849 12.47 33.7289 12.74 34.6889 12.74C35.2169 12.74 35.7089 12.668 36.1649 12.524C36.6329 12.368 37.0769 12.116 37.4969 11.768L38.0909 13.01C37.6709 13.382 37.1609 13.67 36.5609 13.874C35.9609 14.066 35.3249 14.162 34.6529 14.162ZM45.217 14.162C44.425 14.162 43.735 13.964 43.147 13.568C42.559 13.172 42.169 12.632 41.977 11.948H42.175V14H40.375V0.751999H42.193V6.944H41.977C42.181 6.272 42.571 5.744 43.147 5.36C43.735 4.964 44.425 4.766 45.217 4.766C46.021 4.766 46.723 4.958 47.323 5.342C47.923 5.714 48.385 6.254 48.709 6.962C49.045 7.658 49.213 8.498 49.213 9.482C49.213 10.454 49.045 11.294 48.709 12.002C48.385 12.698 47.917 13.232 47.305 13.604C46.705 13.976 46.009 14.162 45.217 14.162ZM44.767 12.74C45.547 12.74 46.177 12.47 46.657 11.93C47.137 11.378 47.377 10.562 47.377 9.482C47.377 8.39 47.137 7.574 46.657 7.034C46.177 6.482 45.547 6.206 44.767 6.206C43.975 6.206 43.339 6.482 42.859 7.034C42.391 7.574 42.157 8.384 42.157 9.464C42.157 10.544 42.391 11.36 42.859 11.912C43.339 12.464 43.975 12.74 44.767 12.74ZM55.3218 14.162C54.4218 14.162 53.6418 13.976 52.9818 13.604C52.3218 13.22 51.8118 12.68 51.4518 11.984C51.0918 11.276 50.9118 10.436 50.9118 9.464C50.9118 8.492 51.0918 7.658 51.4518 6.962C51.8118 6.254 52.3218 5.714 52.9818 5.342C53.6418 4.958 54.4218 4.766 55.3218 4.766C56.2218 4.766 57.0018 4.958 57.6618 5.342C58.3338 5.714 58.8498 6.254 59.2098 6.962C59.5818 7.658 59.7678 8.492 59.7678 9.464C59.7678 10.436 59.5818 11.276 59.2098 11.984C58.8498 12.68 58.3338 13.22 57.6618 13.604C57.0018 13.976 56.2218 14.162 55.3218 14.162ZM55.3218 12.74C56.1138 12.74 56.7438 12.464 57.2118 11.912C57.6798 11.36 57.9138 10.544 57.9138 9.464C57.9138 8.384 57.6798 7.574 57.2118 7.034C56.7438 6.482 56.1138 6.206 55.3218 6.206C54.5418 6.206 53.9178 6.482 53.4498 7.034C52.9818 7.574 52.7478 8.384 52.7478 9.464C52.7478 10.544 52.9818 11.36 53.4498 11.912C53.9178 12.464 54.5418 12.74 55.3218 12.74ZM65.8708 14.162C64.9708 14.162 64.1908 13.976 63.5308 13.604C62.8708 13.22 62.3608 12.68 62.0008 11.984C61.6408 11.276 61.4608 10.436 61.4608 9.464C61.4608 8.492 61.6408 7.658 62.0008 6.962C62.3608 6.254 62.8708 5.714 63.5308 5.342C64.1908 4.958 64.9708 4.766 65.8708 4.766C66.7708 4.766 67.5508 4.958 68.2108 5.342C68.8828 5.714 69.3988 6.254 69.7588 6.962C70.1308 7.658 70.3168 8.492 70.3168 9.464C70.3168 10.436 70.1308 11.276 69.7588 11.984C69.3988 12.68 68.8828 13.22 68.2108 13.604C67.5508 13.976 66.7708 14.162 65.8708 14.162ZM65.8708 12.74C66.6628 12.74 67.2928 12.464 67.7608 11.912C68.2288 11.36 68.4628 10.544 68.4628 9.464C68.4628 8.384 68.2288 7.574 67.7608 7.034C67.2928 6.482 66.6628 6.206 65.8708 6.206C65.0908 6.206 64.4668 6.482 63.9988 7.034C63.5308 7.574 63.2968 8.384 63.2968 9.464C63.2968 10.544 63.5308 11.36 63.9988 11.912C64.4668 12.464 65.0908 12.74 65.8708 12.74ZM72.5318 14V0.751999H74.3498V8.888H74.3858L78.3458 4.928H80.5958L75.8078 9.698L75.8258 8.888L80.9918 14H78.6878L74.3858 9.842H74.3498V14H72.5318Z" fill="#A0A3BD"/>
</svg>
