<svg width="24" height="25" viewBox="0 0 24 25" fill="none" xmlns="http://www.w3.org/2000/svg">
<path d="M22.5396 6.60811C22.4208 6.1378 22.1789 5.70689 21.8382 5.3589C21.4976 5.0109 21.0703 4.75815 20.5996 4.62617C18.8796 4.20996 11.9996 4.20996 11.9996 4.20996C11.9996 4.20996 5.1196 4.20996 3.3996 4.66581C2.92884 4.79779 2.50157 5.05054 2.16094 5.39854C1.82031 5.74653 1.57838 6.17744 1.4596 6.64775C1.14481 8.37754 0.990831 10.1323 0.999595 11.89C0.988374 13.6609 1.14236 15.429 1.4596 17.1719C1.59055 17.6276 1.8379 18.0421 2.17774 18.3754C2.51758 18.7087 2.93842 18.9495 3.3996 19.0745C5.1196 19.5304 11.9996 19.5304 11.9996 19.5304C11.9996 19.5304 18.8796 19.5304 20.5996 19.0745C21.0703 18.9425 21.4976 18.6898 21.8382 18.3418C22.1789 17.9938 22.4208 17.5629 22.5396 17.0926C22.852 15.3758 23.0059 13.6344 22.9996 11.89C23.0108 10.1191 22.8568 8.35093 22.5396 6.60811V6.60811Z" stroke="#6E7191" stroke-width="2" stroke-linecap="round" stroke-linejoin="round"/>
<path d="M9.75 15.1304L15.5 11.8899L9.75 8.64941V15.1304Z" stroke="#6E7191" stroke-width="2" stroke-linecap="round" stroke-linejoin="round"/>
</svg>
