<svg width="59" height="19" viewBox="0 0 59 19" fill="none" xmlns="http://www.w3.org/2000/svg">
<path d="M6.50281 14.162C5.09881 14.162 3.91681 13.904 2.95681 13.388C2.00881 12.86 1.29481 12.11 0.814812 11.138C0.334812 10.166 0.0948122 9.008 0.0948122 7.664C0.0948122 6.32 0.346812 5.162 0.850812 4.19C1.36681 3.218 2.09881 2.468 3.04681 1.94C4.00681 1.412 5.15881 1.148 6.50281 1.148C7.42681 1.148 8.23081 1.28 8.91481 1.544C9.59881 1.796 10.2108 2.168 10.7508 2.66L10.0848 4.118C9.70081 3.794 9.32881 3.536 8.96881 3.344C8.60881 3.152 8.23681 3.014 7.85281 2.93C7.46881 2.834 7.01881 2.786 6.50281 2.786C5.05081 2.786 3.94681 3.212 3.19081 4.064C2.43481 4.916 2.05681 6.122 2.05681 7.682C2.05681 9.266 2.41681 10.472 3.13681 11.3C3.86881 12.128 5.01481 12.542 6.57481 12.542C7.11481 12.542 7.64881 12.494 8.17681 12.398C8.70481 12.29 9.21481 12.134 9.70681 11.93L9.34681 12.812V8.654H6.21481V7.25H10.9128V13.244C10.5528 13.424 10.1268 13.586 9.63481 13.73C9.15481 13.862 8.64481 13.964 8.10481 14.036C7.56481 14.12 7.03081 14.162 6.50281 14.162ZM17.5791 14.162C16.6791 14.162 15.8991 13.976 15.2391 13.604C14.5791 13.22 14.0691 12.68 13.7091 11.984C13.3491 11.276 13.1691 10.436 13.1691 9.464C13.1691 8.492 13.3491 7.658 13.7091 6.962C14.0691 6.254 14.5791 5.714 15.2391 5.342C15.8991 4.958 16.6791 4.766 17.5791 4.766C18.4791 4.766 19.2591 4.958 19.9191 5.342C20.5911 5.714 21.1071 6.254 21.4671 6.962C21.8391 7.658 22.0251 8.492 22.0251 9.464C22.0251 10.436 21.8391 11.276 21.4671 11.984C21.1071 12.68 20.5911 13.22 19.9191 13.604C19.2591 13.976 18.4791 14.162 17.5791 14.162ZM17.5791 12.74C18.3711 12.74 19.0011 12.464 19.4691 11.912C19.9371 11.36 20.1711 10.544 20.1711 9.464C20.1711 8.384 19.9371 7.574 19.4691 7.034C19.0011 6.482 18.3711 6.206 17.5791 6.206C16.7991 6.206 16.1751 6.482 15.7071 7.034C15.2391 7.574 15.0051 8.384 15.0051 9.464C15.0051 10.544 15.2391 11.36 15.7071 11.912C16.1751 12.464 16.7991 12.74 17.5791 12.74ZM28.1281 14.162C27.2281 14.162 26.4481 13.976 25.7881 13.604C25.1281 13.22 24.6181 12.68 24.2581 11.984C23.8981 11.276 23.7181 10.436 23.7181 9.464C23.7181 8.492 23.8981 7.658 24.2581 6.962C24.6181 6.254 25.1281 5.714 25.7881 5.342C26.4481 4.958 27.2281 4.766 28.1281 4.766C29.0281 4.766 29.8081 4.958 30.4681 5.342C31.1401 5.714 31.6561 6.254 32.0161 6.962C32.3881 7.658 32.5741 8.492 32.5741 9.464C32.5741 10.436 32.3881 11.276 32.0161 11.984C31.6561 12.68 31.1401 13.22 30.4681 13.604C29.8081 13.976 29.0281 14.162 28.1281 14.162ZM28.1281 12.74C28.9201 12.74 29.5501 12.464 30.0181 11.912C30.4861 11.36 30.7201 10.544 30.7201 9.464C30.7201 8.384 30.4861 7.574 30.0181 7.034C29.5501 6.482 28.9201 6.206 28.1281 6.206C27.3481 6.206 26.7241 6.482 26.2561 7.034C25.7881 7.574 25.5541 8.384 25.5541 9.464C25.5541 10.544 25.7881 11.36 26.2561 11.912C26.7241 12.464 27.3481 12.74 28.1281 12.74ZM38.8751 18.032C38.0591 18.032 37.3151 17.936 36.6431 17.744C35.9831 17.552 35.3891 17.264 34.8611 16.88L35.3111 15.548C35.6831 15.8 36.0491 15.998 36.4091 16.142C36.7691 16.298 37.1471 16.412 37.5431 16.484C37.9391 16.556 38.3471 16.592 38.7671 16.592C39.6311 16.592 40.2791 16.37 40.7111 15.926C41.1551 15.494 41.3771 14.864 41.3771 14.036V11.606H41.5571C41.3651 12.278 40.9691 12.812 40.3691 13.208C39.7811 13.592 39.0971 13.784 38.3171 13.784C37.4891 13.784 36.7691 13.604 36.1571 13.244C35.5571 12.872 35.0891 12.35 34.7531 11.678C34.4291 10.994 34.2671 10.19 34.2671 9.266C34.2671 8.342 34.4291 7.544 34.7531 6.872C35.0891 6.2 35.5571 5.684 36.1571 5.324C36.7691 4.952 37.4891 4.766 38.3171 4.766C39.1091 4.766 39.7931 4.964 40.3691 5.36C40.9571 5.744 41.3471 6.272 41.5391 6.944L41.3771 6.8L41.5391 4.928H43.3031C43.2551 5.3 43.2191 5.672 43.1951 6.044C43.1711 6.404 43.1591 6.758 43.1591 7.106V13.82C43.1591 15.188 42.7931 16.232 42.0611 16.952C41.3411 17.672 40.2791 18.032 38.8751 18.032ZM38.7491 12.362C39.5411 12.362 40.1711 12.092 40.6391 11.552C41.1191 11.012 41.3591 10.25 41.3591 9.266C41.3591 8.282 41.1191 7.526 40.6391 6.998C40.1711 6.47 39.5411 6.206 38.7491 6.206C37.9331 6.206 37.2851 6.47 36.8051 6.998C36.3371 7.526 36.1031 8.282 36.1031 9.266C36.1031 10.25 36.3371 11.012 36.8051 11.552C37.2851 12.092 37.9331 12.362 38.7491 12.362ZM45.9006 14V0.751999H47.7186V14H45.9006ZM54.667 14.162C53.683 14.162 52.837 13.976 52.129 13.604C51.433 13.232 50.893 12.698 50.509 12.002C50.137 11.294 49.951 10.454 49.951 9.482C49.951 8.534 50.131 7.706 50.491 6.998C50.863 6.29 51.373 5.744 52.021 5.36C52.681 4.964 53.443 4.766 54.307 4.766C55.159 4.766 55.873 4.946 56.449 5.306C57.025 5.666 57.463 6.176 57.763 6.836C58.063 7.484 58.213 8.252 58.213 9.14V9.716H51.373V8.672H56.971L56.665 8.906C56.665 8.006 56.461 7.31 56.053 6.818C55.657 6.314 55.081 6.062 54.325 6.062C53.761 6.062 53.281 6.194 52.885 6.458C52.501 6.722 52.207 7.1 52.003 7.592C51.799 8.072 51.697 8.654 51.697 9.338V9.518C51.697 10.586 51.955 11.39 52.471 11.93C52.999 12.47 53.743 12.74 54.703 12.74C55.231 12.74 55.723 12.668 56.179 12.524C56.647 12.368 57.091 12.116 57.511 11.768L58.105 13.01C57.685 13.382 57.175 13.67 56.575 13.874C55.975 14.066 55.339 14.162 54.667 14.162Z" fill="#A0A3BD"/>
</svg>
