<svg width="202" height="43" viewBox="0 0 202 43" fill="none" xmlns="http://www.w3.org/2000/svg">
<path d="M10.7292 3.51941C10.7292 4.52853 10.699 5.71232 10.6386 7.07075C10.5782 8.39038 10.5178 9.3995 10.4575 10.0981C10.2763 12.0776 10.1857 14.057 10.1857 16.0364C10.1857 17.5113 10.2763 19.0444 10.4575 20.6357C12.3295 18.8892 14.3526 17.6083 16.5267 16.7933C18.7007 15.9782 21.3277 15.5707 24.4075 15.5707C26.642 15.5707 28.7254 16.2111 30.6579 17.4919C32.5904 18.7727 33.8284 20.267 34.3719 21.9748C34.5531 23.4884 34.6437 25.332 34.6437 27.5055C34.6437 28.9028 34.7644 30.727 35.006 32.9781C35.1268 33.832 35.4589 34.6276 36.0024 35.3651C36.6063 36.1025 37.4518 36.4712 38.5388 36.4712C39.0823 36.4712 39.505 36.4518 39.807 36.413C40.1693 36.3742 40.5015 36.3548 40.8034 36.3548C41.6489 36.3548 42.2226 36.4906 42.5245 36.7623C42.8869 37.034 43.068 37.4221 43.068 37.9267C43.068 38.8582 42.3434 39.5568 40.894 40.0226C39.4447 40.4883 38.1161 40.7212 36.9083 40.7212C32.5602 40.7212 29.5709 39.5568 27.9404 37.2281C27.0345 35.9084 26.4608 34.2007 26.2192 32.1048C25.9777 29.9701 25.8569 27.4861 25.8569 24.6528C25.8569 21.8583 24.3774 20.4611 21.4182 20.4611C19.7877 20.4611 18.127 21.0238 16.4361 22.1494C14.8055 23.2362 13.4468 24.6916 12.3597 26.5158C11.2727 28.3012 10.7292 30.1642 10.7292 32.1048L10.8198 38.1596C10.8198 39.0134 10.3065 39.6539 9.27985 40.0808C8.25322 40.4689 7.28698 40.663 6.38113 40.663C5.05256 40.663 3.84476 40.4107 2.75774 39.9061C1.67072 39.3628 1.12721 38.7612 1.12721 38.1013C1.54994 35.1904 1.7613 30.3194 1.7613 23.4884C1.7613 22.2464 1.61033 17.6472 1.30838 9.6906L1.03662 4.33447C1.03662 3.4806 1.64052 2.74316 2.84832 2.12216C4.05612 1.46235 5.4149 1.13244 6.92464 1.13244C8.25322 1.13244 9.21946 1.3265 9.82336 1.71463C10.4273 2.10275 10.7292 2.70435 10.7292 3.51941ZM54.3889 3.05366C56.5026 3.1701 58.3445 3.53882 59.9146 4.15982C61.4847 4.742 62.2698 5.63469 62.2698 6.83788C62.2698 7.73057 61.6055 8.4486 60.2769 8.99197C59.0087 9.49653 57.4688 9.74882 55.6571 9.74882C53.9058 9.74882 52.698 9.45772 52.0337 8.87553C51.3694 8.29335 51.0373 7.69175 51.0373 7.07075C51.0373 5.90638 51.2184 4.93607 51.5808 4.15982C52.0035 3.38357 52.9395 3.01485 54.3889 3.05366ZM61.6357 28.8446V30.5329C61.6357 32.0466 61.6961 33.4827 61.8169 34.8411C61.998 36.1607 62.2094 37.4998 62.451 38.8582C62.3906 39.2463 61.9377 39.6539 61.0922 40.0808C60.2467 40.4689 59.4919 40.663 58.8276 40.663C57.6802 40.663 56.5026 40.5271 55.2948 40.2554C54.1473 39.9449 53.4529 39.5762 53.2113 39.1493C52.849 37.9073 52.6678 36.8011 52.6678 35.8308C52.6678 32.6482 52.5168 29.0774 52.2149 25.1186C51.9733 21.6254 51.8525 19.1803 51.8525 17.783C51.8525 17.0844 52.396 16.4828 53.4831 15.9782C54.5701 15.4737 55.7175 15.2214 56.9253 15.2214C58.6766 15.2214 59.8844 15.4737 60.5487 15.9782C61.2734 16.4828 61.6357 17.2784 61.6357 18.3652V28.8446ZM92.8646 6.13925C91.0529 6.13925 89.9357 7.10957 89.513 9.05019C89.0903 11.6894 88.8789 13.6883 88.8789 15.0467C90.0867 15.1243 91.3549 15.1632 92.6835 15.1632C93.5289 15.1632 94.6159 15.1243 95.9445 15.0467L98.2997 14.9885C99.5075 14.9885 100.413 15.1243 101.017 15.396C101.621 15.6677 101.923 16.1141 101.923 16.7351C101.923 17.5889 101.47 18.3264 100.564 18.9474C99.7189 19.5296 98.7225 19.8207 97.5751 19.8207C93.227 19.8207 90.2981 19.9565 88.7883 20.2282C88.7883 22.5958 88.9695 25.953 89.3318 30.3L89.513 33.1528L89.8753 37.6938C89.9961 38.8194 89.8149 39.615 89.3318 40.0808C88.9091 40.5077 87.973 40.7212 86.5237 40.7212C83.8665 40.7212 82.1454 39.6927 81.3603 37.6356C80.8772 36.1219 80.4847 34.0066 80.1827 31.2898C79.8808 28.5729 79.7298 26.1471 79.7298 24.0124C79.7298 22.8868 79.8204 21.606 80.0016 20.17C79.8808 20.1312 79.5486 20.1118 79.0051 20.1118C78.4616 20.1118 78.0691 20.1312 77.8275 20.17C76.0158 20.2476 74.6872 20.2864 73.8418 20.2864C73.2983 20.2864 72.7548 20.0535 72.2113 19.5878C71.6677 19.0832 71.396 18.4816 71.396 17.783C71.396 17.3949 71.6073 17.0456 72.0301 16.7351C72.4528 16.3858 72.9661 16.1335 73.57 15.9782C74.4759 15.6677 75.7743 15.5125 77.4652 15.5125L80.1827 15.5707C80.1827 10.0593 81.149 6.23628 83.0815 4.1016C84.8932 2.08335 87.8825 1.07422 92.0494 1.07422C94.465 1.07422 96.6692 1.46234 98.6621 2.2386C99.5075 2.58791 100.142 3.01485 100.564 3.51941C101.047 4.02397 101.289 4.50913 101.289 4.97488C101.289 5.55707 100.927 6.15866 100.202 6.77966C99.5377 7.40066 98.5111 7.71116 97.1221 7.71116C96.5786 7.71116 95.8841 7.43947 95.0387 6.8961C94.7367 6.70203 94.4046 6.52738 94.0422 6.37213C93.6799 6.21688 93.2874 6.13925 92.8646 6.13925ZM119.754 31.4062C119.754 32.8811 120.086 34.026 120.75 34.8411C121.475 35.6174 122.381 36.0055 123.468 36.0055C124.072 36.0055 124.646 35.9861 125.189 35.9473C125.733 35.8696 126.276 35.8308 126.82 35.8308C127.424 35.8308 127.937 36.0249 128.36 36.413C128.843 36.8011 129.084 37.2281 129.084 37.6938C129.084 38.6253 128.39 39.3628 127.001 39.9061C125.672 40.4107 123.861 40.663 121.566 40.663C119.935 40.663 118.274 40.3525 116.584 39.7315C114.953 39.0717 113.594 38.0625 112.507 36.7041C111.42 35.3069 110.877 33.5797 110.877 31.5226C110.877 27.098 110.997 23.3526 111.239 20.2864C111.541 16.638 111.692 12.0388 111.692 6.48857C111.692 4.742 111.843 3.51941 112.145 2.82078C112.507 2.27741 113.081 1.86988 113.866 1.59819C114.711 1.28769 115.587 1.13244 116.493 1.13244C117.399 1.13244 118.184 1.22947 118.848 1.42353C119.573 1.6176 120.056 1.9281 120.298 2.35503C120.539 2.82078 120.69 3.28653 120.75 3.75228C120.871 4.17922 120.932 4.80022 120.932 5.61528C120.932 7.2066 120.841 8.73969 120.66 10.2146C120.539 11.9999 120.479 13.3002 120.479 14.1152C119.996 20.9462 119.754 26.7099 119.754 31.4062ZM141.141 3.05366C143.254 3.1701 145.096 3.53882 146.666 4.15982C148.236 4.742 149.022 5.63469 149.022 6.83788C149.022 7.73057 148.357 8.4486 147.029 8.99197C145.76 9.49653 144.221 9.74882 142.409 9.74882C140.658 9.74882 139.45 9.45772 138.785 8.87553C138.121 8.29335 137.789 7.69175 137.789 7.07075C137.789 5.90638 137.97 4.93607 138.333 4.15982C138.755 3.38357 139.691 3.01485 141.141 3.05366ZM148.387 28.8446V30.5329C148.387 32.0466 148.448 33.4827 148.569 34.8411C148.75 36.1607 148.961 37.4998 149.203 38.8582C149.203 39.3239 148.78 39.7509 147.935 40.139C147.089 40.4883 146.304 40.663 145.579 40.663C144.432 40.663 143.254 40.5271 142.046 40.2554C140.899 39.9449 140.205 39.5762 139.963 39.1493C139.601 37.9073 139.42 36.8011 139.42 35.8308C139.42 32.6482 139.269 29.0774 138.967 25.1186C138.725 21.6254 138.604 19.1803 138.604 17.783C138.604 17.0844 139.148 16.4828 140.235 15.9782C141.322 15.4737 142.469 15.2214 143.677 15.2214C145.428 15.2214 146.636 15.4737 147.3 15.9782C148.025 16.4828 148.387 17.2784 148.387 18.3652V28.8446ZM191.574 14.7556C192.781 14.7556 193.717 14.9497 194.382 15.3378C195.106 15.6871 195.469 16.1335 195.469 16.6768C195.469 17.065 195.348 17.4725 195.106 17.8994C194.925 18.2876 194.714 18.6951 194.472 19.122C193.083 21.2179 190.154 24.1483 185.686 27.9131C190.275 31.7167 193.989 34.1619 196.827 35.2486C197.069 35.3263 197.522 35.4621 198.186 35.6562C198.851 35.8502 199.364 36.0831 199.726 36.3548C200.149 36.6265 200.36 36.937 200.36 37.2863C200.36 38.1402 199.847 38.8388 198.82 39.3822C197.854 39.8867 196.677 40.139 195.288 40.139C192.932 40.139 190.366 39.3045 187.588 37.6356C184.81 35.9278 182.455 34.1425 180.522 32.2795C179.133 33.6379 177.533 34.9963 175.721 36.3548C173.97 37.6744 172.339 38.8 170.83 39.7315C170.226 40.1584 169.501 40.4883 168.656 40.7212C167.87 40.9541 167.085 41.0705 166.3 41.0705C165.213 41.0705 164.247 40.9153 163.402 40.6048C162.556 40.2943 162.133 39.7509 162.133 38.9746C162.133 38.7806 162.345 38.4701 162.768 38.0431C163.19 37.5774 163.432 37.3057 163.492 37.2281C164.217 36.413 165.183 35.5785 166.391 34.7247C167.599 33.832 168.354 33.2692 168.656 33.0363C169.38 32.4541 170.165 31.8914 171.011 31.348C171.494 30.9987 172.219 30.4553 173.185 29.7178C174.151 28.9804 174.815 28.3982 175.178 27.9713L172.007 25.1768C170.497 24.0512 169.199 23.1585 168.112 22.4987C167.025 21.8001 166.149 21.4508 165.485 21.4508C164.519 21.4508 163.613 21.6254 162.768 21.9748C162.043 22.2853 161.318 22.4405 160.594 22.4405C159.808 22.4405 159.205 22.3241 158.782 22.0912C158.359 21.8195 158.148 21.5284 158.148 21.2179C158.148 19.8983 158.963 18.7727 160.594 17.8412C162.224 16.8709 164.277 16.3858 166.753 16.3858C169.108 16.3858 171.192 16.9097 173.004 17.9577C174.876 18.9668 176.718 20.3252 178.529 22.033C178.771 22.1882 179.043 22.4405 179.345 22.7898C179.647 23.1391 179.948 23.4302 180.25 23.6631C180.915 23.0421 182.123 21.8389 183.874 20.0535C185.746 17.9188 186.863 16.6963 187.225 16.3858C188.494 15.299 189.943 14.7556 191.574 14.7556Z" fill="white"/>
</svg>
