<svg width="18" height="18" viewBox="0 0 18 18" fill="none" xmlns="http://www.w3.org/2000/svg">
<path d="M12.9674 6.98252C12.898 6.91299 12.8156 6.85783 12.7249 6.82019C12.6342 6.78256 12.5369 6.76318 12.4387 6.76318C12.3404 6.76318 12.2432 6.78256 12.1525 6.82019C12.0617 6.85783 11.9793 6.91299 11.9099 6.98252L8.99992 9.89252L6.08992 6.98252C5.94969 6.84228 5.75949 6.7635 5.56117 6.7635C5.36285 6.7635 5.17266 6.84228 5.03242 6.98252C4.89219 7.12275 4.81341 7.31295 4.81341 7.51127C4.81341 7.70959 4.89219 7.89978 5.03242 8.04002L8.47492 11.4825C8.54431 11.552 8.62672 11.6072 8.71745 11.6448C8.80818 11.6825 8.90545 11.7018 9.00367 11.7018C9.1019 11.7018 9.19916 11.6825 9.28989 11.6448C9.38062 11.6072 9.46304 11.552 9.53242 11.4825L12.9749 8.04002C13.2599 7.75502 13.2599 7.27502 12.9674 6.98252Z" fill="#414141"/>
</svg>
