<svg width="22" height="21" viewBox="0 0 22 21" fill="none" xmlns="http://www.w3.org/2000/svg">
<path fill-rule="evenodd" clip-rule="evenodd" d="M11.2002 21C16.9992 21 21.7002 16.299 21.7002 10.5C21.7002 4.70101 16.9992 0 11.2002 0C5.4012 0 0.700195 4.70101 0.700195 10.5C0.700195 16.299 5.4012 21 11.2002 21ZM16.1618 8.24293C16.5463 7.85852 16.5463 7.23523 16.1618 6.85082C15.7774 6.4664 15.1542 6.4664 14.7698 6.85082L9.55957 12.061L7.63063 10.1321C7.24621 9.74765 6.62293 9.74765 6.23851 10.1321C5.85409 10.5165 5.85409 11.1398 6.23851 11.5242L8.86351 14.1491C9.24793 14.5336 9.87121 14.5336 10.2556 14.1491L16.1618 8.24293Z" fill="#1D4ED8"/>
</svg>
